<?xml version="1.0" standalone="no"?>
<!DOCTYPE svg PUBLIC "-//W3C//DTD SVG 20010904//EN"
 "http://www.w3.org/TR/2001/REC-SVG-20010904/DTD/svg10.dtd">
<svg version="1.0" xmlns="http://www.w3.org/2000/svg"
 width="1080.000000pt" height="1080.000000pt" viewBox="0 0 1080.000000 1080.000000"
 preserveAspectRatio="xMidYMid meet">

<g transform="translate(0.000000,1080.000000) scale(0.100000,-0.100000)"
fill="#000000" stroke="none">
<path d="M3855 9965 c-182 -33 -329 -128 -386 -250 -73 -153 -10 -398 141
-558 70 -74 78 -59 20 39 -49 85 -53 133 -14 169 15 14 32 25 39 25 19 0 37
-105 23 -134 -14 -33 17 -100 50 -104 13 -2 29 -16 38 -34 9 -17 55 -70 104
-117 133 -131 245 -177 372 -153 l63 12 43 -47 c117 -129 142 -190 153 -383 8
-157 10 -377 2 -345 -3 11 -26 63 -50 115 -139 292 -183 406 -183 471 0 47
-23 107 -44 115 -8 3 -32 -4 -53 -15 -37 -18 -39 -22 -42 -70 -2 -48 -1 -51
31 -64 33 -14 34 -16 63 -143 35 -157 96 -373 129 -455 14 -33 44 -83 67 -112
l41 -52 -52 54 c-70 74 -156 204 -225 342 -68 136 -123 216 -198 286 -60 57
-170 131 -232 157 -21 9 -42 21 -46 27 -7 13 -79 -15 -214 -83 -269 -135 -395
-264 -395 -404 0 -116 69 -439 118 -555 43 -100 133 -168 234 -178 l60 -6 39
-110 39 -110 0 -212 0 -211 -52 -30 c-29 -16 -107 -61 -173 -99 -66 -39 -235
-136 -375 -217 -140 -81 -312 -181 -382 -222 l-126 -74 -154 59 c-238 92 -398
162 -424 185 -17 15 -41 68 -78 176 -29 85 -67 182 -84 216 -36 71 -116 149
-202 197 -50 27 -58 35 -53 54 3 13 3 30 -1 38 -5 14 -9 14 -37 0 -17 -9 -37
-14 -44 -11 -19 7 -67 -47 -59 -67 8 -22 -36 -40 -92 -39 -58 2 -120 32 -181
86 -99 90 -132 151 -149 276 l-5 35 30 -34 c25 -28 34 -32 59 -26 45 10 177
100 217 150 39 47 75 129 75 171 0 25 2 26 38 19 60 -11 116 -40 146 -76 27
-32 29 -32 42 -14 33 45 30 184 -5 253 -23 45 -74 92 -100 92 -24 0 -129 56
-161 85 -14 13 -38 27 -55 30 -16 4 -61 19 -100 33 -96 34 -218 36 -289 4
l-50 -22 -30 29 c-75 72 -175 96 -267 66 -133 -44 -215 -101 -253 -177 -42
-84 -33 -169 38 -340 58 -140 60 -230 6 -292 l-30 -34 51 -22 c141 -60 241
-24 295 105 l15 37 28 -39 c28 -39 119 -123 134 -123 4 0 6 26 5 58 -3 63 8
87 48 102 12 5 31 6 43 3 31 -8 30 -64 -1 -78 -34 -15 -37 -79 -7 -111 12 -13
28 -24 35 -24 7 0 21 -14 32 -31 33 -52 190 -205 232 -225 28 -14 46 -33 65
-69 15 -27 51 -81 80 -119 88 -114 136 -233 134 -334 l0 -37 -20 44 c-29 66
-102 163 -156 209 -26 22 -93 66 -148 97 -55 32 -144 86 -198 120 l-97 63 -78
-33 c-286 -121 -469 -249 -527 -370 -31 -67 -32 -124 -4 -288 57 -326 111
-454 222 -517 92 -53 171 -49 301 14 53 26 73 32 86 24 9 -6 40 -59 68 -117
28 -58 75 -149 106 -201 53 -92 55 -96 36 -110 -10 -8 -163 -98 -339 -200
l-321 -184 0 -161 0 -160 278 -161 c152 -88 417 -241 589 -340 l312 -179 1
-75 c0 -41 4 -80 8 -87 8 -12 58 -42 432 -251 298 -167 338 -189 450 -252 52
-29 124 -70 160 -90 36 -20 106 -59 155 -87 357 -201 426 -239 475 -266 30
-16 63 -37 73 -45 16 -14 17 -64 17 -790 0 -737 1 -774 18 -761 9 8 29 21 45
29 15 7 27 17 27 22 0 5 4 7 8 4 5 -3 18 2 28 12 11 9 26 18 34 20 8 2 17 7
20 11 3 5 15 11 28 15 12 4 22 12 22 17 0 5 9 9 19 9 11 0 23 5 26 11 4 5 17
15 28 20 12 5 36 18 52 29 17 10 49 29 73 41 23 13 51 31 62 41 11 10 20 16
20 13 0 -3 12 1 28 10 27 16 27 18 23 101 -1 46 2 97 7 113 l10 29 -149 83
-149 84 0 383 c0 242 -4 390 -10 402 -9 16 -8 19 7 13 16 -5 525 -297 785
-449 l108 -63 182 105 c395 228 476 274 483 274 4 0 4 -8 0 -17 -7 -17 -17
-154 -50 -688 -9 -137 -19 -305 -24 -372 -4 -68 -10 -125 -13 -129 -4 -3 -41
13 -83 36 -67 38 -82 42 -125 38 -62 -6 -150 -69 -180 -129 -29 -55 -31 -130
-5 -164 31 -41 513 -285 562 -285 76 1 166 51 204 114 23 37 24 98 4 183 -13
57 -13 66 2 100 10 21 18 40 20 42 1 2 37 -16 80 -39 130 -71 132 -72 178 -68
l43 3 -43 -46 c-82 -87 -83 -169 -3 -248 130 -131 421 -213 753 -214 387 0
665 114 665 273 0 69 -71 163 -180 235 -68 45 -201 107 -257 119 -25 6 -31 12
-29 29 7 54 26 72 131 121 57 27 152 76 210 111 58 34 105 59 105 54 0 -4 -5
-11 -10 -14 -16 -10 -11 -41 9 -59 29 -27 125 -32 196 -11 150 43 268 169 375
400 49 106 74 181 120 358 10 38 21 54 54 77 58 40 89 76 130 150 56 103 143
329 176 458 10 39 13 42 46 42 48 0 97 25 134 66 25 29 30 43 30 87 0 32 8 69
19 93 10 21 25 59 32 84 7 25 16 49 19 53 7 8 60 -16 170 -78 53 -30 81 -31
137 -5 63 28 86 70 79 144 -6 57 17 156 36 156 4 0 39 -20 78 -45 47 -30 72
-53 76 -70 3 -14 10 -25 16 -25 5 0 7 -4 3 -9 -3 -5 -1 -12 4 -16 6 -3 7 -13
4 -22 -4 -10 -2 -14 4 -10 7 5 9 0 6 -13 -3 -12 0 -20 6 -20 7 0 10 -4 6 -9
-3 -5 -1 -12 5 -16 6 -4 8 -11 4 -16 -3 -5 2 -21 10 -35 16 -23 16 -25 -6 -33
-13 -4 -47 -14 -77 -21 -132 -31 -280 -108 -357 -184 -118 -119 -106 -224 37
-316 69 -44 211 -93 340 -117 132 -24 440 -24 564 1 184 36 312 86 384 151
100 91 95 180 -16 286 -75 72 -234 156 -333 176 -35 7 -55 34 -38 51 7 7 9 12
4 12 -4 0 0 10 8 22 9 12 16 30 16 39 0 27 114 72 180 70 144 -3 293 90 390
243 18 28 54 68 81 89 34 26 58 57 80 103 30 61 32 69 26 140 -5 59 -2 93 14
159 l21 84 68 50 c79 59 113 108 180 259 88 196 160 453 160 564 -1 112 -80
178 -213 178 -62 0 -80 -5 -165 -45 -52 -25 -96 -45 -98 -45 -2 0 -4 21 -4 48
-1 66 -30 123 -101 197 -54 56 -58 64 -40 70 30 9 135 127 161 179 49 102 45
167 -15 269 l-35 58 3 217 c1 163 -1 227 -12 257 -34 101 -65 151 -127 211
-35 34 -64 69 -64 77 0 8 -14 27 -32 42 l-32 27 -221 -5 c-184 -4 -231 -8
-287 -25 -145 -44 -241 -123 -254 -208 -9 -60 2 -155 27 -231 23 -69 81 -143
129 -163 43 -18 61 -57 54 -114 -6 -38 -4 -47 11 -52 12 -5 23 0 35 16 12 16
19 19 25 11 4 -7 0 -20 -9 -30 -23 -25 -30 -74 -16 -115 26 -80 114 -70 133
15 9 37 -10 97 -37 115 -26 16 -39 67 -22 84 28 28 74 -8 120 -95 42 -80 32
-148 -29 -205 -15 -14 -34 -39 -41 -57 -32 -74 -5 -215 53 -284 14 -16 24 -32
22 -34 -2 -2 -20 3 -39 10 -171 64 -184 67 -253 62 -47 -3 -85 -13 -127 -34
-32 -16 -56 -25 -54 -21 9 15 137 102 196 133 l59 32 -39 26 c-46 30 -98 104
-113 161 -6 22 -12 92 -14 156 -1 63 -6 123 -10 133 -4 9 -42 36 -84 60 -42
24 -166 95 -276 159 -340 196 -655 377 -777 447 l-117 66 -3 414 -3 413 -102
59 -102 59 -75 -45 -76 -45 0 185 c0 108 -4 185 -9 185 -5 0 -200 -110 -433
-244 -233 -133 -535 -307 -673 -386 -137 -79 -302 -173 -365 -210 -63 -37
-180 -104 -260 -150 -80 -46 -197 -114 -261 -151 -64 -38 -128 -74 -143 -80
-14 -7 -26 -15 -26 -19 0 -4 111 -71 248 -150 136 -79 306 -177 377 -218 72
-42 178 -104 237 -138 58 -34 109 -60 112 -56 3 3 6 83 6 178 l0 172 308 177
c730 422 903 522 1004 581 58 34 109 60 112 56 3 -3 6 -229 6 -502 l0 -496
-52 -30 c-29 -17 -223 -129 -430 -248 -208 -120 -375 -222 -373 -227 3 -4 30
-22 60 -39 47 -27 58 -29 77 -19 13 6 196 112 408 234 212 122 395 227 408
234 l22 12 0 -123 0 -124 -307 -177 c-170 -98 -314 -181 -321 -185 -8 -6 3
-23 39 -61 28 -29 63 -80 78 -112 l26 -58 319 184 c175 102 324 185 330 185 6
0 106 -69 221 -153 l210 -154 3 -55 3 -54 -201 -117 c-169 -100 -203 -116
-220 -107 -24 13 -63 -5 -125 -55 -42 -34 -69 -78 -80 -129 l-6 -29 -25 24
c-14 13 -47 56 -72 94 -65 98 -85 112 -179 129 -30 5 -33 3 -33 -18 0 -19 8
-26 43 -35 59 -15 106 -46 118 -78 6 -16 22 -43 36 -61 14 -18 22 -36 19 -39
-3 -3 -83 -52 -178 -107 -147 -86 -173 -105 -172 -124 1 -21 -2 -22 -30 -17
-17 4 -59 15 -93 26 l-62 20 -3 282 -3 283 -32 64 c-49 100 -101 142 -368 295
-132 76 -334 193 -450 260 -115 67 -361 209 -545 315 -184 106 -407 236 -495
288 l-160 94 -50 -27 c-27 -16 -102 -58 -165 -95 -63 -36 -180 -104 -260 -150
-80 -46 -197 -114 -260 -150 -63 -37 -308 -179 -545 -315 -421 -243 -789 -456
-1070 -618 -158 -91 -186 -112 -231 -171 -72 -94 -68 -64 -74 -743 l-5 -612
-72 45 -73 46 0 591 c0 638 1 651 54 740 47 81 93 112 536 367 80 46 208 120
285 165 77 45 203 118 280 162 77 45 250 145 385 224 135 78 432 251 660 383
229 133 417 246 419 251 4 12 18 4 -474 287 -214 124 -435 252 -490 283 -362
210 -359 208 -415 214 l-54 6 79 46 c141 82 161 79 393 -57 170 -99 202 -118
814 -473 l346 -201 109 63 c59 35 171 100 248 144 77 45 266 154 420 243 378
219 517 299 599 346 l68 39 -6 89 c-3 49 -6 149 -6 222 l0 132 -105 60 -105
60 -97 -57 c-351 -206 -430 -251 -436 -251 -3 0 -29 14 -57 30 -28 17 -55 30
-60 30 -5 0 -73 -38 -152 -83 -79 -46 -162 -94 -185 -107 l-42 -23 -80 36
c-43 20 -153 61 -242 90 -182 60 -231 82 -284 129 -44 38 -59 67 -120 228 -65
170 -105 247 -157 297 -55 54 -142 105 -240 143 l-78 30 -46 -35 c-48 -37 -86
-51 -104 -40 -12 7 61 65 84 65 17 0 66 48 66 65 0 7 -7 18 -15 25 -20 16 -75
-15 -93 -53 -17 -35 -91 -75 -103 -55 -12 19 -12 21 14 59 32 48 110 94 161
93 22 0 49 -3 59 -8 14 -7 17 -3 17 18 0 76 -126 54 -273 -47 -111 -76 -150
-64 -198 61 -17 47 -22 84 -25 209 -4 179 -2 184 74 162 68 -20 175 -16 246
10 123 43 216 122 216 181 0 40 -53 113 -118 161 -31 23 -73 54 -92 69 -53 40
-58 42 -124 56 -76 16 -160 16 -251 -1z m-12 -791 c13 -38 28 -78 32 -89 8
-18 7 -18 -8 -7 -28 24 -67 99 -67 132 0 20 -9 40 -25 56 -14 14 -25 34 -25
46 0 37 66 -61 93 -138z m1018 -1242 c47 -22 137 -55 200 -73 62 -17 123 -35
133 -38 15 -6 -9 -24 -113 -85 -74 -42 -135 -75 -136 -74 -61 69 -102 123
-122 163 -29 57 -66 158 -55 153 4 -2 45 -23 93 -46z m-3467 -934 c63 -84 94
-242 76 -390 -9 -80 -29 -188 -33 -188 -1 0 -2 60 -2 133 0 98 -5 147 -19 192
-20 68 -50 131 -76 160 -9 11 -20 37 -23 57 -5 31 -2 40 16 53 29 21 32 20 61
-17z m490 -868 c44 -21 117 -49 161 -61 44 -12 84 -25 88 -29 4 -4 -39 -34
-97 -67 l-104 -61 -44 47 c-88 92 -154 199 -174 286 -7 28 -4 26 41 -23 34
-38 70 -63 129 -92z m6968 70 c116 -44 223 -139 270 -238 16 -35 41 -74 55
-86 l25 -22 -84 -55 -83 -55 -75 17 c-234 56 -490 196 -490 269 0 48 46 107
121 156 76 48 160 53 261 14z m-3332 -589 l0 -519 -662 -382 c-365 -211 -697
-403 -738 -427 l-75 -43 -3 517 c-1 284 1 520 5 524 5 4 213 125 463 270 250
144 577 333 725 420 149 86 273 157 278 158 4 1 7 -232 7 -518z m-3182 197
c-1 -139 -3 -236 -5 -215 -5 40 -9 43 -35 23 -12 -8 -18 -27 -18 -50 0 -20 -3
-36 -7 -37 -5 0 -99 46 -210 103 -182 92 -203 106 -203 128 0 22 28 41 233
162 127 75 235 137 240 137 4 1 6 -113 5 -251z m-576 -117 c40 -15 99 -72 117
-112 9 -20 32 -49 50 -64 45 -39 55 -69 36 -109 -28 -59 -116 -106 -197 -106
-84 0 -328 104 -328 140 0 12 11 19 38 24 60 10 68 8 112 -29 48 -40 82 -44
151 -20 54 19 116 62 131 89 9 16 4 14 -23 -8 -39 -33 -145 -86 -172 -86 -25
0 -56 17 -92 50 -35 33 -48 37 -92 26 -53 -12 -142 50 -129 91 8 26 73 87 121
113 36 20 50 21 146 16 58 -3 117 -10 131 -15z m3888 -808 l0 -128 -113 -64
c-61 -35 -217 -125 -344 -199 l-233 -134 0 -37 c0 -35 6 -42 91 -110 75 -60
89 -75 78 -86 -8 -6 -142 -85 -299 -175 l-285 -163 -105 56 -105 55 -5 47 -5
46 -219 -125 c-120 -69 -220 -126 -221 -126 -2 0 -51 27 -109 61 l-106 61 0
123 0 123 104 -60 104 -60 173 101 c96 55 494 285 884 510 391 226 711 411
713 411 1 0 2 -57 2 -127z m3560 -95 c-1 -45 -15 -62 -77 -90 l-65 -29 -56 17
c-31 9 -52 18 -47 21 6 2 57 23 115 47 115 48 130 52 130 34z m1180 -127 c26
-49 2 -205 -71 -470 -49 -178 -68 -224 -136 -329 -103 -161 -244 -273 -307
-244 -43 19 -37 44 27 118 172 200 288 466 327 754 7 47 17 97 22 113 24 63
114 102 138 58z m-3462 -102 c24 -26 59 -58 78 -71 57 -37 76 -86 68 -168 -6
-62 -5 -69 14 -79 17 -9 25 -7 41 11 26 27 39 17 17 -14 -9 -12 -16 -34 -16
-49 0 -36 36 -79 65 -79 30 0 65 44 65 80 0 15 -9 38 -19 52 -11 13 -23 37
-26 51 -7 25 -5 27 22 27 16 0 38 -7 50 -15 37 -26 38 -71 4 -174 -46 -139
-40 -181 31 -221 32 -18 51 -21 96 -18 47 3 69 12 127 50 89 59 167 139 199
203 24 48 31 54 212 158 102 59 189 106 191 103 3 -2 -7 -168 -22 -368 -14
-200 -29 -400 -32 -445 -3 -46 -10 -83 -15 -83 -5 0 -43 18 -86 41 -59 31 -85
40 -109 36 -30 -5 -31 -4 -42 40 -27 105 -90 192 -169 232 -42 21 -168 48
-178 38 -3 -3 8 -18 25 -34 67 -60 43 -144 -54 -193 -44 -22 -62 -25 -160 -25
-106 0 -113 2 -200 40 -81 35 -98 39 -170 38 -64 0 -92 -5 -137 -26 -32 -14
-58 -24 -58 -22 0 8 146 107 195 132 28 14 79 36 114 48 l64 23 -34 17 c-74
38 -137 109 -165 186 -10 29 -17 86 -19 164 -2 73 -10 140 -19 170 -20 62 -22
242 -3 211 7 -11 31 -41 55 -67z m-466 -56 c117 -55 164 -118 183 -246 7 -46
7 -47 -19 -47 -69 0 -157 -79 -189 -168 l-19 -51 -45 14 c-53 16 -147 76 -165
106 -7 11 -49 39 -92 62 -44 23 -97 59 -119 79 -36 34 -39 41 -34 74 8 50 49
98 121 142 54 34 66 37 134 38 60 1 77 5 84 19 14 25 79 16 160 -22z m-632
-402 l215 -158 0 -52 0 -52 -333 -195 c-207 -121 -342 -194 -359 -194 -70 0
-189 -100 -213 -178 -6 -20 -14 -43 -16 -51 -7 -21 -57 30 -109 109 -66 100
-95 121 -192 139 -37 7 -43 6 -49 -11 -8 -26 0 -33 68 -52 58 -16 118 -58 118
-80 0 -7 11 -30 25 -51 15 -20 24 -39 22 -42 -3 -2 -78 -47 -167 -98 l-163
-95 -216 124 -216 124 0 93 0 93 115 66 c63 37 266 154 450 260 184 106 438
253 565 327 126 73 232 133 235 132 3 0 102 -71 220 -158z m-4214 -168 c-4 -4
-76 37 -76 44 0 2 18 -6 40 -18 22 -12 38 -24 36 -26z m50 -31 c-4 -3 -14 2
-24 12 -16 18 -16 18 6 6 13 -6 21 -14 18 -18z m54 -28 c0 -2 -9 0 -20 6 -11
6 -20 13 -20 16 0 2 9 0 20 -6 11 -6 20 -13 20 -16z m50 -30 c0 -2 -9 0 -20 6
-11 6 -20 13 -20 16 0 2 9 0 20 -6 11 -6 20 -13 20 -16z m6737 -21 c-3 -10 -5
-2 -5 17 0 19 2 27 5 18 2 -10 2 -26 0 -35z m-6644 -27 c36 -22 65 -41 63 -43
-3 -4 -134 73 -146 85 -10 10 18 -4 83 -42z m117 -72 c0 -2 -9 0 -20 6 -11 6
-20 13 -20 16 0 2 9 0 20 -6 11 -6 20 -13 20 -16z m50 -30 c0 -2 -9 0 -20 6
-11 6 -20 13 -20 16 0 2 9 0 20 -6 11 -6 20 -13 20 -16z m118 -64 c26 -16 44
-30 39 -30 -4 0 -28 13 -55 30 -26 16 -44 30 -39 30 4 0 28 -13 55 -30z m92
-56 c0 -2 -9 0 -20 6 -11 6 -20 13 -20 16 0 2 9 0 20 -6 11 -6 20 -13 20 -16z
m50 -30 c0 -2 -9 0 -20 6 -11 6 -20 13 -20 16 0 2 9 0 20 -6 11 -6 20 -13 20
-16z m4300 -41 c-1 -18 -29 -41 -104 -88 -94 -58 -241 -173 -349 -275 l-78
-73 -37 17 c-20 9 -48 25 -61 35 l-23 18 138 80 c77 45 220 128 319 186 181
106 195 113 195 100z m-4156 -38 c11 -8 16 -15 10 -15 -5 0 -18 7 -28 15 -11
8 -16 15 -10 15 5 0 18 -7 28 -15z m66 -41 c0 -2 -9 0 -20 6 -11 6 -20 13 -20
16 0 2 9 0 20 -6 11 -6 20 -13 20 -16z m50 -30 c0 -2 -9 0 -20 6 -11 6 -20 13
-20 16 0 2 9 0 20 -6 11 -6 20 -13 20 -16z m50 -30 c0 -2 -9 0 -20 6 -11 6
-20 13 -20 16 0 2 9 0 20 -6 11 -6 20 -13 20 -16z m210 -120 c0 -2 -9 0 -20 6
-11 6 -20 13 -20 16 0 2 9 0 20 -6 11 -6 20 -13 20 -16z m6463 -101 c-7 -2
-19 -2 -25 0 -7 3 -2 5 12 5 14 0 19 -2 13 -5z m104 1 c-3 -3 -12 -4 -19 -1
-8 3 -5 6 6 6 11 1 17 -2 13 -5z m-6312 -44 c3 -6 -1 -7 -9 -4 -18 7 -21 14
-7 14 6 0 13 -4 16 -10z m55 -36 c0 -2 -9 0 -20 6 -11 6 -20 13 -20 16 0 2 9
0 20 -6 11 -6 20 -13 20 -16z m155 -92 c-3 -3 -11 0 -18 7 -9 10 -8 11 6 5 10
-3 15 -9 12 -12z m249 -137 c11 -8 16 -15 10 -15 -5 0 -18 7 -28 15 -11 8 -16
15 -10 15 5 0 18 -7 28 -15z m4266 -95 c15 -15 20 -33 20 -75 0 -111 -105
-527 -162 -640 -102 -202 -292 -376 -367 -335 -41 22 -36 47 23 111 172 185
299 476 337 771 13 97 33 138 81 168 41 25 43 25 68 0z m-2218 -932 c-3 -72
-8 -98 -18 -98 -7 0 -15 3 -17 8 -4 5 9 79 32 191 1 2 3 2 4 0 2 -2 2 -48 -1
-101z m-1922 -112 c0 -2 -7 -7 -16 -10 -8 -3 -12 -2 -9 4 6 10 25 14 25 6z
m2392 -79 c105 -62 112 -69 114 -107 0 -14 4 -33 8 -42 6 -14 3 -18 -14 -18
-42 0 -185 -42 -257 -75 l-72 -33 20 39 c12 21 19 53 18 71 -2 21 9 58 30 101
17 38 34 82 38 98 3 16 8 28 12 27 3 -2 50 -29 103 -61z m386 -424 c-10 -2
-28 -2 -40 0 -13 2 -5 4 17 4 22 1 32 -1 23 -4z"/>
</g>
</svg>
